<?xml version="1.0" encoding="UTF-8" standalone="no"?>
<!-- Created with Inkscape (http://www.inkscape.org/) -->

<svg
   xmlns:dc="http://purl.org/dc/elements/1.1/"
   xmlns:cc="http://creativecommons.org/ns#"
   xmlns:rdf="http://www.w3.org/1999/02/22-rdf-syntax-ns#"
   xmlns:svg="http://www.w3.org/2000/svg"
   xmlns="http://www.w3.org/2000/svg"
   xmlns:sodipodi="http://sodipodi.sourceforge.net/DTD/sodipodi-0.dtd"
   xmlns:inkscape="http://www.inkscape.org/namespaces/inkscape"
   width="66.5"
   height="30"
   id="svg2"
   sodipodi:version="0.32"
   inkscape:version="0.48.1 r9760"
   sodipodi:docname="logo.svg"
   inkscape:output_extension="org.inkscape.output.svg.inkscape"
   version="1.1">
  <defs
     id="defs4" />
  <sodipodi:namedview
     id="base"
     pagecolor="#ffffff"
     bordercolor="#666666"
     borderopacity="1.0"
     inkscape:pageopacity="0.0"
     inkscape:pageshadow="2"
     inkscape:zoom="10.417467"
     inkscape:cx="24.67567"
     inkscape:cy="15.777561"
     inkscape:document-units="px"
     inkscape:current-layer="layer1"
     inkscape:window-width="1022"
     inkscape:window-height="747"
     inkscape:window-x="0"
     inkscape:window-y="19"
     showgrid="false"
     showguides="false"
     inkscape:guide-bbox="true"
     inkscape:snap-to-guides="false"
     inkscape:snap-page="true"
     inkscape:window-maximized="0"
     inkscape:snap-grids="false">
    <sodipodi:guide
       orientation="1,0"
       position="99.832327,929.20858"
       id="guide3068" />
    <sodipodi:guide
       orientation="1,0"
       position="124.40644,981.42857"
       id="guide3070" />
    <sodipodi:guide
       orientation="1,0"
       position="175.09054,864.70154"
       id="guide3072" />
    <sodipodi:guide
       orientation="1,0"
       position="199.66465,1158.055"
       id="guide3074" />
    <sodipodi:guide
       orientation="1,0"
       position="24.574111,844.73508"
       id="guide3856" />
    <sodipodi:guide
       orientation="1,0"
       position="274.92287,921.52918"
       id="guide3858" />
    <sodipodi:guide
       orientation="1,0"
       position="586.45758,724.93628"
       id="guide4003" />
    <sodipodi:guide
       orientation="0,1"
       position="950.27848,769.99707"
       id="guide3209" />
    <sodipodi:guide
       orientation="0,1"
       position="687.4586,1014.3544"
       id="guide3304" />
    <sodipodi:guide
       orientation="0,1"
       position="897.87741,619.31006"
       id="guide3673" />
    <sodipodi:guide
       orientation="1,0"
       position="900.04947,740.9457"
       id="guide3677" />
  </sodipodi:namedview>
  <metadata
     id="metadata7">
    <rdf:RDF>
      <cc:Work
         rdf:about="">
        <dc:format>image/svg+xml</dc:format>
        <dc:type
           rdf:resource="http://purl.org/dc/dcmitype/StillImage" />
        <dc:title />
      </cc:Work>
    </rdf:RDF>
  </metadata>
  <g
     inkscape:label="Capa 1"
     inkscape:groupmode="layer"
     id="layer1"
     transform="translate(0,-1022.3622)">
    <g
       id="g3002"
       transform="matrix(0.75045787,0,0,0.75045787,-0.04904455,262.61133)">
      <rect
         y="1016.9814"
         x="4.2267222"
         height="31.889385"
         width="52.67247"
         id="rect3488"
         style="color:#000000;fill:#cccccc;fill-opacity:1;fill-rule:nonzero;stroke:none;stroke-width:0.2;marker:none;visibility:visible;display:inline;overflow:visible;enable-background:accumulate" />
      <path
         id="rect3306-0-7"
         d="m -0.19653813,1012.5647 0,39.808 78.35986513,0 0,-39.808 -78.35986513,0 z m 5.76822263,6.2175 4.6386255,0 1.923796,19.7126 2.322477,-12.7515 4.404479,0 2.699009,12.7515 1.509294,-19.7126 4.676595,0 -3.094526,26.8509 -4.945547,0 -3.056557,-14.0994 -2.86038,14.0994 -4.9107418,0 -3.3065237,-26.8509 z m 33.2709055,6.2239 c 1.13903,0 2.271219,0.096 3.398284,0.2879 1.139027,0.1799 2.24257,0.4542 3.309688,0.8259 l 0,4.6038 c -0.9712,-0.6235 -1.982477,-1.09 -3.037572,-1.4017 -1.043137,-0.3237 -2.093217,-0.4873 -3.148317,-0.4873 -1.175022,0 -2.061554,0.1744 -2.66104,0.5221 -0.599504,0.3357 -0.901787,0.841 -0.901779,1.5124 -8e-6,0.9592 1.284904,1.7388 3.850756,2.3383 l 0.196176,0.054 1.512458,0.3576 c 1.91837,0.4556 3.321032,1.1926 4.208303,2.2117 0.899224,1.0072 1.347903,2.3742 1.347922,4.1007 -1.9e-5,2.0743 -0.683529,3.6335 -2.050361,4.6766 -1.354876,1.0311 -3.398412,1.5473 -6.132098,1.5473 -1.210992,0 -2.453268,-0.1069 -3.72419,-0.3228 -1.270936,-0.2038 -2.55968,-0.5169 -3.866576,-0.9365 l 0,-4.6039 c 1.163017,0.6595 2.344836,1.1648 3.543834,1.5125 1.210972,0.3477 2.378803,0.5189 3.505864,0.5189 1.234949,0 2.171112,-0.1782 2.80659,-0.5379 0.635451,-0.3597 0.952391,-0.8828 0.952406,-1.5662 -1.5e-5,-0.6715 -0.227852,-1.1844 -0.683454,-1.5441 -0.44364,-0.3597 -1.508377,-0.7441 -3.198943,-1.1518 l -1.458668,-0.3259 c -2.014312,-0.4556 -3.481262,-1.1678 -4.404479,-2.139 -0.923227,-0.9711 -1.385895,-2.2707 -1.385892,-3.9013 -3e-6,-1.9424 0.701328,-3.4551 2.104151,-4.5342 1.402814,-1.0791 3.375068,-1.6169 5.916937,-1.6169 z"
         style="color:#000000;fill:#999999;fill-opacity:1;fill-rule:nonzero;stroke:none;stroke-width:0.2;marker:none;visibility:visible;display:inline;overflow:visible;enable-background:accumulate"
         inkscape:connector-curvature="0" />
      <path
         id="rect3020-8-2-2"
         d="m 77.299966,1012.5772 4.620467,0 0,11.9611 -3.366209,3.9064 0,8.0547 3.366209,3.9042 0,11.9611 -4.620467,0 0,-39.7876 z"
         style="color:#000000;fill:#999999;fill-opacity:1;fill-rule:nonzero;stroke:none;stroke-width:0.2;marker:none;visibility:visible;display:inline;overflow:visible;enable-background:accumulate"
         inkscape:connector-curvature="0" />
      <path
         inkscape:connector-curvature="0"
         id="rect3020-7"
         d="m 79.124689,1028.6766 3.15153,-3.6526 3.343745,3.6526 0,7.5376 -3.343745,3.6526 -3.15153,-3.6526 0,-7.5376 z"
         style="color:#000000;fill:#999999;fill-opacity:1;fill-rule:nonzero;stroke:none;stroke-width:0.2;marker:none;visibility:visible;display:inline;overflow:visible;enable-background:accumulate" />
      <path
         sodipodi:nodetypes="ccccccccc"
         inkscape:connector-curvature="0"
         id="rect3921-7"
         d="m 82.66023,1012.576 0,11.9602 3.575665,3.9054 0,8.0549 -3.575665,3.9054 0,11.9602 6.182879,0 0,-39.7861 z"
         style="color:#000000;fill:#999999;fill-opacity:1;fill-rule:nonzero;stroke:none;stroke-width:6;marker:none;visibility:visible;display:inline;overflow:visible;enable-background:accumulate" />
      <path
         inkscape:connector-curvature="0"
         id="rect3020"
         d="m 78.974,1028.4837 3.15153,-3.6527 3.343745,3.6527 0,7.5376 -3.343745,3.6526 -3.15153,-3.6526 0,-7.5376 z"
         style="color:#000000;fill:#808080;fill-opacity:1;fill-rule:nonzero;stroke:none;stroke-width:0.2;marker:none;visibility:visible;display:inline;overflow:visible;enable-background:accumulate" />
      <path
         id="rect3020-8"
         d="m 77.267322,1012.3822 4.50242,0 0,11.9611 -3.366209,3.9064 0,8.0547 3.366209,3.9042 0,11.9611 -4.50242,0 0,-39.7897 z"
         style="color:#000000;fill:#666666;fill-opacity:1;fill-rule:nonzero;stroke:none;stroke-width:0.2;marker:none;visibility:visible;display:inline;overflow:visible;enable-background:accumulate"
         inkscape:connector-curvature="0" />
      <path
         sodipodi:nodetypes="ccccccccc"
         inkscape:connector-curvature="0"
         id="rect3921"
         d="m 82.509545,1012.3831 0,11.9602 3.57566,3.9054 0,8.0549 -3.57566,3.9054 0,11.9602 6.18287,0 0,-39.7861 z"
         style="color:#000000;fill:#333333;fill-opacity:1;fill-rule:nonzero;stroke:none;stroke-width:6;marker:none;visibility:visible;display:inline;overflow:visible;enable-background:accumulate" />
      <path
         inkscape:connector-curvature="0"
         id="rect3306-0"
         d="m 0.00596667,1012.3622 0,39.808 78.35986533,0 0,-39.808 -78.35986533,0 z m 5.76822263,6.2175 4.6386257,0 1.923796,19.7126 2.322476,-12.7515 4.40448,0 2.699009,12.7515 1.509294,-19.7126 4.676595,0 -3.094527,26.8509 -4.945546,0 -3.056557,-14.0994 -2.860381,14.0994 -4.910741,0 -3.3065237,-26.8509 z m 33.2709057,6.2239 c 1.13903,0 2.271219,0.096 3.398284,0.2879 1.139027,0.1799 2.242569,0.4542 3.309688,0.8259 l 0,4.6038 c -0.9712,-0.6235 -1.982477,-1.09 -3.037572,-1.4017 -1.043137,-0.3237 -2.093218,-0.4873 -3.148317,-0.4873 -1.175022,0 -2.061554,0.1744 -2.66104,0.5221 -0.599504,0.3357 -0.901787,0.841 -0.901779,1.5124 -8e-6,0.9592 1.284904,1.7388 3.850755,2.3383 l 0.196177,0.054 1.512458,0.3576 c 1.91837,0.4556 3.321032,1.1926 4.208302,2.2117 0.899225,1.0072 1.347904,2.3742 1.347923,4.1007 -1.9e-5,2.0743 -0.68353,3.6335 -2.050361,4.6766 -1.354877,1.0311 -3.398412,1.5473 -6.132099,1.5473 -1.210991,0 -2.453267,-0.1069 -3.724189,-0.3228 -1.270937,-0.2038 -2.55968,-0.5169 -3.866576,-0.9366 l 0,-4.6038 c 1.163017,0.6595 2.344836,1.1648 3.543834,1.5125 1.210972,0.3477 2.378803,0.5189 3.505864,0.5189 1.234949,0 2.171112,-0.1782 2.80659,-0.5379 0.635451,-0.3597 0.952391,-0.8828 0.952405,-1.5662 -1.4e-5,-0.6715 -0.227851,-1.1844 -0.683453,-1.5441 -0.44364,-0.3597 -1.508378,-0.7441 -3.198943,-1.1518 l -1.458668,-0.3259 c -2.014312,-0.4556 -3.481262,-1.1678 -4.404479,-2.139 -0.923228,-0.9711 -1.385895,-2.2707 -1.385892,-3.9013 -3e-6,-1.9424 0.701327,-3.4551 2.104151,-4.5342 1.402814,-1.0791 3.375068,-1.6169 5.916937,-1.6169 z"
         style="color:#000000;fill:#666666;fill-opacity:1;fill-rule:nonzero;stroke:none;stroke-width:0.2;marker:none;visibility:visible;display:inline;overflow:visible;enable-background:accumulate" />
    </g>
  </g>
</svg>
